<svg xmlns="http://www.w3.org/2000/svg" xmlns:xlink="http://www.w3.org/1999/xlink" width="500" zoomAndPan="magnify" viewBox="0 0 375 374.999991" height="500" preserveAspectRatio="xMidYMid meet" version="1.2"><defs><clipPath id="f6d0ae5768"><path d="M 170.871094 146.773438 L 176.976562 146.773438 L 176.976562 163.726562 L 170.871094 163.726562 Z M 170.871094 146.773438 "/></clipPath><clipPath id="8b6f70a0c1"><path d="M 165.441406 185.574219 L 182.390625 185.574219 L 182.390625 191.679688 L 165.441406 191.679688 Z M 165.441406 185.574219 "/></clipPath></defs><g id="a340b6b775"><rect x="0" width="375" y="0" height="374.999991" style="fill:#ffffff;fill-opacity:1;stroke:none;"/><rect x="0" width="375" y="0" height="374.999991" style="fill:#ffffff;fill-opacity:1;stroke:none;"/><g style="fill:#131651;fill-opacity:1;"><g transform="translate(159.149687, 232.337534)"><path style="stroke:none" d="M 10.15625 0 L 10.15625 -77.484375 L 15.71875 -77.484375 L 15.71875 -30.453125 L 60.890625 -77.484375 L 67.328125 -77.484375 L 35.140625 -43.546875 L 68.96875 0 L 62.53125 0 L 31.421875 -40.046875 L 15.71875 -23.890625 L 15.71875 0 Z M 10.15625 0 "/></g></g><g style="fill:#ffffff;fill-opacity:1;"><g transform="translate(133.789333, 222.434889)"><path style="stroke:none" d="M 10.15625 0 L 10.15625 -77.484375 L 60.5625 -77.484375 L 60.5625 -72.453125 L 15.71875 -72.453125 L 15.71875 -41.6875 L 53.796875 -41.6875 L 53.796875 -36.890625 L 15.71875 -36.890625 L 15.71875 0 Z M 10.15625 0 "/></g></g><g style="fill:#242a93;fill-opacity:1;"><g transform="translate(136.368658, 217.781669)"><path style="stroke:none" d="M 10.15625 0 L 10.15625 -77.484375 L 60.5625 -77.484375 L 60.5625 -72.453125 L 15.71875 -72.453125 L 15.71875 -41.6875 L 53.796875 -41.6875 L 53.796875 -36.890625 L 15.71875 -36.890625 L 15.71875 0 Z M 10.15625 0 "/></g></g><g clip-rule="nonzero" clip-path="url(#f6d0ae5768)"><path style=" stroke:none;fill-rule:nonzero;fill:#ffffff;fill-opacity:1;" d="M 170.871094 146.773438 L 176.976562 146.773438 L 176.976562 163.730469 L 170.871094 163.730469 Z M 170.871094 146.773438 "/></g><g style="fill:#ffffff;fill-opacity:1;"><g transform="translate(140.328588, 259.91118)"><path style="stroke:none" d="M 1.359375 0 L 1.359375 -10.8125 L 8.453125 -10.8125 L 8.453125 -9.859375 L 2.421875 -9.859375 L 2.421875 -5.890625 L 7.5 -5.890625 L 7.5 -5 L 2.421875 -5 L 2.421875 0 Z M 1.359375 0 "/></g></g><g style="fill:#ffffff;fill-opacity:1;"><g transform="translate(150.498488, 259.91118)"><path style="stroke:none" d="M 4.703125 -10.8125 L 5.59375 -10.8125 L 10.09375 0 L 8.96875 0 L 7.5625 -3.375 L 2.703125 -3.375 L 1.328125 0 L 0.1875 0 Z M 7.3125 -4.21875 L 5.140625 -9.5625 L 2.9375 -4.21875 Z M 7.3125 -4.21875 "/></g></g><g style="fill:#ffffff;fill-opacity:1;"><g transform="translate(161.992805, 259.91118)"><path style="stroke:none" d="M 1.359375 0 L 1.359375 -10.8125 L 2.421875 -10.8125 L 2.421875 0 Z M 1.359375 0 "/></g></g><g style="fill:#ffffff;fill-opacity:1;"><g transform="translate(166.971651, 259.91118)"><path style="stroke:none" d="M 9.03125 -9.859375 L 5.171875 -9.859375 L 5.171875 0 L 4.109375 0 L 4.109375 -9.859375 L 0.265625 -9.859375 L 0.265625 -10.8125 L 9.03125 -10.8125 Z M 9.03125 -9.859375 "/></g></g><g style="fill:#ffffff;fill-opacity:1;"><g transform="translate(177.461243, 259.91118)"><path style="stroke:none" d="M 9.875 -10.8125 L 9.875 0 L 8.828125 0 L 8.828125 -5.046875 L 2.421875 -5.046875 L 2.421875 0 L 1.359375 0 L 1.359375 -10.8125 L 2.421875 -10.8125 L 2.421875 -6 L 8.828125 -6 L 8.828125 -10.8125 Z M 9.875 -10.8125 "/></g></g><g style="fill:#ffffff;fill-opacity:1;"><g transform="translate(189.899385, 259.91118)"><path style="stroke:none" d=""/></g></g><g style="fill:#ffffff;fill-opacity:1;"><g transform="translate(194.984791, 259.91118)"><path style="stroke:none" d="M 1.359375 0 L 1.359375 -10.796875 L 2.421875 -10.796875 L 2.421875 -4.515625 L 8.375 -10.8125 L 9.546875 -10.8125 L 5.125 -6.0625 L 9.765625 0 L 8.5625 0 L 4.4375 -5.421875 L 2.421875 -3.3125 L 2.421875 0 Z M 1.359375 0 "/></g></g><g style="fill:#ffffff;fill-opacity:1;"><g transform="translate(205.976746, 259.91118)"><path style="stroke:none" d="M 5.703125 0.078125 C 4.941406 0.078125 4.25 -0.0703125 3.625 -0.375 C 3.007812 -0.6875 2.476562 -1.101562 2.03125 -1.625 C 1.59375 -2.144531 1.25 -2.734375 1 -3.390625 C 0.757812 -4.046875 0.640625 -4.71875 0.640625 -5.40625 C 0.640625 -6.125 0.765625 -6.8125 1.015625 -7.46875 C 1.273438 -8.125 1.632812 -8.707031 2.09375 -9.21875 C 2.550781 -9.726562 3.085938 -10.128906 3.703125 -10.421875 C 4.328125 -10.722656 5 -10.875 5.71875 -10.875 C 6.476562 -10.875 7.164062 -10.71875 7.78125 -10.40625 C 8.40625 -10.09375 8.9375 -9.671875 9.375 -9.140625 C 9.820312 -8.617188 10.164062 -8.03125 10.40625 -7.375 C 10.65625 -6.726562 10.78125 -6.066406 10.78125 -5.390625 C 10.78125 -4.671875 10.648438 -3.984375 10.390625 -3.328125 C 10.140625 -2.671875 9.785156 -2.085938 9.328125 -1.578125 C 8.867188 -1.066406 8.328125 -0.660156 7.703125 -0.359375 C 7.085938 -0.0664062 6.421875 0.078125 5.703125 0.078125 Z M 1.703125 -5.40625 C 1.703125 -4.8125 1.796875 -4.242188 1.984375 -3.703125 C 2.179688 -3.160156 2.457031 -2.675781 2.8125 -2.25 C 3.164062 -1.832031 3.585938 -1.5 4.078125 -1.25 C 4.578125 -1 5.117188 -0.875 5.703125 -0.875 C 6.328125 -0.875 6.882812 -1.003906 7.375 -1.265625 C 7.863281 -1.523438 8.28125 -1.867188 8.625 -2.296875 C 8.976562 -2.734375 9.242188 -3.21875 9.421875 -3.75 C 9.609375 -4.289062 9.703125 -4.84375 9.703125 -5.40625 C 9.703125 -5.988281 9.601562 -6.550781 9.40625 -7.09375 C 9.21875 -7.632812 8.941406 -8.113281 8.578125 -8.53125 C 8.222656 -8.957031 7.800781 -9.289062 7.3125 -9.53125 C 6.832031 -9.78125 6.296875 -9.90625 5.703125 -9.90625 C 5.097656 -9.90625 4.546875 -9.773438 4.046875 -9.515625 C 3.554688 -9.265625 3.132812 -8.925781 2.78125 -8.5 C 2.4375 -8.070312 2.171875 -7.585938 1.984375 -7.046875 C 1.796875 -6.503906 1.703125 -5.957031 1.703125 -5.40625 Z M 1.703125 -5.40625 "/></g></g><g style="fill:#ffffff;fill-opacity:1;"><g transform="translate(218.612782, 259.91118)"><path style="stroke:none" d="M 1.3125 -10.8125 L 5.171875 -1.328125 L 9.03125 -10.8125 L 10.140625 -10.8125 L 5.65625 0 L 4.6875 0 L 0.203125 -10.8125 Z M 1.3125 -10.8125 "/></g></g><g style="fill:#ffffff;fill-opacity:1;"><g transform="translate(230.152759, 259.91118)"><path style="stroke:none" d="M 1.359375 0 L 1.359375 -10.8125 L 2.421875 -10.8125 L 2.421875 0 Z M 1.359375 0 "/></g></g><g style="fill:#000000;fill-opacity:1;"><g transform="translate(140.688651, 259.261608)"><path style="stroke:none" d="M 1.359375 0 L 1.359375 -10.8125 L 8.453125 -10.8125 L 8.453125 -9.859375 L 2.421875 -9.859375 L 2.421875 -5.890625 L 7.5 -5.890625 L 7.5 -5 L 2.421875 -5 L 2.421875 0 Z M 1.359375 0 "/></g></g><g style="fill:#000000;fill-opacity:1;"><g transform="translate(150.85855, 259.261608)"><path style="stroke:none" d="M 4.703125 -10.8125 L 5.59375 -10.8125 L 10.09375 0 L 8.96875 0 L 7.5625 -3.375 L 2.703125 -3.375 L 1.328125 0 L 0.1875 0 Z M 7.3125 -4.21875 L 5.140625 -9.5625 L 2.9375 -4.21875 Z M 7.3125 -4.21875 "/></g></g><g style="fill:#000000;fill-opacity:1;"><g transform="translate(162.352867, 259.261608)"><path style="stroke:none" d="M 1.359375 0 L 1.359375 -10.8125 L 2.421875 -10.8125 L 2.421875 0 Z M 1.359375 0 "/></g></g><g style="fill:#000000;fill-opacity:1;"><g transform="translate(167.331713, 259.261608)"><path style="stroke:none" d="M 9.03125 -9.859375 L 5.171875 -9.859375 L 5.171875 0 L 4.109375 0 L 4.109375 -9.859375 L 0.265625 -9.859375 L 0.265625 -10.8125 L 9.03125 -10.8125 Z M 9.03125 -9.859375 "/></g></g><g style="fill:#000000;fill-opacity:1;"><g transform="translate(177.821305, 259.261608)"><path style="stroke:none" d="M 9.875 -10.8125 L 9.875 0 L 8.828125 0 L 8.828125 -5.046875 L 2.421875 -5.046875 L 2.421875 0 L 1.359375 0 L 1.359375 -10.8125 L 2.421875 -10.8125 L 2.421875 -6 L 8.828125 -6 L 8.828125 -10.8125 Z M 9.875 -10.8125 "/></g></g><g style="fill:#000000;fill-opacity:1;"><g transform="translate(190.259448, 259.261608)"><path style="stroke:none" d=""/></g></g><g style="fill:#000000;fill-opacity:1;"><g transform="translate(195.344853, 259.261608)"><path style="stroke:none" d="M 1.359375 0 L 1.359375 -10.796875 L 2.421875 -10.796875 L 2.421875 -4.515625 L 8.375 -10.8125 L 9.546875 -10.8125 L 5.125 -6.0625 L 9.765625 0 L 8.5625 0 L 4.4375 -5.421875 L 2.421875 -3.3125 L 2.421875 0 Z M 1.359375 0 "/></g></g><g style="fill:#000000;fill-opacity:1;"><g transform="translate(206.336808, 259.261608)"><path style="stroke:none" d="M 5.703125 0.078125 C 4.941406 0.078125 4.25 -0.0703125 3.625 -0.375 C 3.007812 -0.6875 2.476562 -1.101562 2.03125 -1.625 C 1.59375 -2.144531 1.25 -2.734375 1 -3.390625 C 0.757812 -4.046875 0.640625 -4.71875 0.640625 -5.40625 C 0.640625 -6.125 0.765625 -6.8125 1.015625 -7.46875 C 1.273438 -8.125 1.632812 -8.707031 2.09375 -9.21875 C 2.550781 -9.726562 3.085938 -10.128906 3.703125 -10.421875 C 4.328125 -10.722656 5 -10.875 5.71875 -10.875 C 6.476562 -10.875 7.164062 -10.71875 7.78125 -10.40625 C 8.40625 -10.09375 8.9375 -9.671875 9.375 -9.140625 C 9.820312 -8.617188 10.164062 -8.03125 10.40625 -7.375 C 10.65625 -6.726562 10.78125 -6.066406 10.78125 -5.390625 C 10.78125 -4.671875 10.648438 -3.984375 10.390625 -3.328125 C 10.140625 -2.671875 9.785156 -2.085938 9.328125 -1.578125 C 8.867188 -1.066406 8.328125 -0.660156 7.703125 -0.359375 C 7.085938 -0.0664062 6.421875 0.078125 5.703125 0.078125 Z M 1.703125 -5.40625 C 1.703125 -4.8125 1.796875 -4.242188 1.984375 -3.703125 C 2.179688 -3.160156 2.457031 -2.675781 2.8125 -2.25 C 3.164062 -1.832031 3.585938 -1.5 4.078125 -1.25 C 4.578125 -1 5.117188 -0.875 5.703125 -0.875 C 6.328125 -0.875 6.882812 -1.003906 7.375 -1.265625 C 7.863281 -1.523438 8.28125 -1.867188 8.625 -2.296875 C 8.976562 -2.734375 9.242188 -3.21875 9.421875 -3.75 C 9.609375 -4.289062 9.703125 -4.84375 9.703125 -5.40625 C 9.703125 -5.988281 9.601562 -6.550781 9.40625 -7.09375 C 9.21875 -7.632812 8.941406 -8.113281 8.578125 -8.53125 C 8.222656 -8.957031 7.800781 -9.289062 7.3125 -9.53125 C 6.832031 -9.78125 6.296875 -9.90625 5.703125 -9.90625 C 5.097656 -9.90625 4.546875 -9.773438 4.046875 -9.515625 C 3.554688 -9.265625 3.132812 -8.925781 2.78125 -8.5 C 2.4375 -8.070312 2.171875 -7.585938 1.984375 -7.046875 C 1.796875 -6.503906 1.703125 -5.957031 1.703125 -5.40625 Z M 1.703125 -5.40625 "/></g></g><g style="fill:#000000;fill-opacity:1;"><g transform="translate(218.972844, 259.261608)"><path style="stroke:none" d="M 1.3125 -10.8125 L 5.171875 -1.328125 L 9.03125 -10.8125 L 10.140625 -10.8125 L 5.65625 0 L 4.6875 0 L 0.203125 -10.8125 Z M 1.3125 -10.8125 "/></g></g><g style="fill:#000000;fill-opacity:1;"><g transform="translate(230.512821, 259.261608)"><path style="stroke:none" d="M 1.359375 0 L 1.359375 -10.8125 L 2.421875 -10.8125 L 2.421875 0 Z M 1.359375 0 "/></g></g><g clip-rule="nonzero" clip-path="url(#8b6f70a0c1)"><path style=" stroke:none;fill-rule:nonzero;fill:#ffffff;fill-opacity:1;" d="M 182.390625 185.574219 L 182.390625 191.679688 L 165.4375 191.679688 L 165.4375 185.574219 Z M 182.390625 185.574219 "/></g></g></svg>